<?xml version="1.0" encoding="iso-8859-1"?>
<!-- Generator: Adobe Illustrator 16.0.3, SVG Export Plug-In . SVG Version: 6.00 Build 0)  -->
<!DOCTYPE svg [
	<!ENTITY ns_extend "http://ns.adobe.com/Extensibility/1.0/">
	<!ENTITY ns_ai "http://ns.adobe.com/AdobeIllustrator/10.0/">
	<!ENTITY ns_graphs "http://ns.adobe.com/Graphs/1.0/">
	<!ENTITY ns_vars "http://ns.adobe.com/Variables/1.0/">
	<!ENTITY ns_imrep "http://ns.adobe.com/ImageReplacement/1.0/">
	<!ENTITY ns_sfw "http://ns.adobe.com/SaveForWeb/1.0/">
	<!ENTITY ns_custom "http://ns.adobe.com/GenericCustomNamespace/1.0/">
	<!ENTITY ns_adobe_xpath "http://ns.adobe.com/XPath/1.0/">
]>
<svg version="1.2" baseProfile="tiny" id="Ebene_1" xmlns:x="&ns_extend;" xmlns:i="&ns_ai;" xmlns:graph="&ns_graphs;"
	 xmlns="http://www.w3.org/2000/svg" xmlns:xlink="http://www.w3.org/1999/xlink" x="0px" y="0px" width="104px" height="42px"
	 viewBox="0 0 104 42" xml:space="preserve">
<metadata>
	<sfw  xmlns="&ns_sfw;">
		<slices></slices>
		<sliceSourceBounds  width="104" height="41.602" y="106.699" x="74.5" bottomLeftOrigin="true"></sliceSourceBounds>
	</sfw>
</metadata>
<g>
	<path fill="#505050" d="M104,21c0,11.487-9.314,20.801-20.801,20.801H20.801C9.31,41.801,0,32.487,0,21l0,0
		C0,9.513,9.31,0.199,20.801,0.199h62.398C94.686,0.199,104,9.513,104,21L104,21z"/>
	<path fill="#FFFFFF" d="M4.16,21c0-9.188,7.452-16.641,16.641-16.641S37.44,11.812,37.44,21c0,9.188-7.45,16.641-16.639,16.641
		S4.16,30.188,4.16,21z"/>
	<path fill="#969696" d="M66.558,21c0-9.188,7.455-16.641,16.642-16.641c9.191,0,16.641,7.452,16.641,16.641
		c0,9.188-7.449,16.641-16.641,16.641C74.013,37.641,66.558,30.188,66.558,21z"/>
</g>
<g>
	<rect x="3.678" y="12.604" fill="none" width="33.765" height="22.929"/>
	<path fill="#505050" d="M19.016,27.752V13.737h3.11v14.015H19.016z"/>
</g>
<g>
	<rect x="66.355" y="12.604" fill="none" width="33.766" height="22.929"/>
	<path fill="#505050" d="M77.818,20.755c0-3.571,1.281-7.228,5.421-7.228c4.118,0,5.441,3.677,5.441,7.228
		c0,3.572-1.261,7.229-5.441,7.229c-1.051,0-1.934-0.21-2.627-0.609C78.49,26.113,77.818,23.55,77.818,20.755z M83.239,25.945
		c2.206,0,2.416-2.879,2.416-5.19c0-2.5-0.231-5.189-2.416-5.189c-2.165,0-2.396,2.731-2.396,5.189c0,1.177,0.042,2.459,0.357,3.467
		C81.516,25.23,82.125,25.945,83.239,25.945z"/>
</g>
</svg>
